<?xml version="1.0" ?><svg viewBox="0 0 256 256" xmlns="http://www.w3.org/2000/svg"><rect fill="none" height="256" width="256"/><path d="M200,48H56a8,8,0,0,0-8,8V200a8,8,0,0,0,8,8H200a8,8,0,0,0,8-8V56A8,8,0,0,0,200,48ZM156,156H100V100h56Z" opacity="0.2"/><rect fill="none" height="56" stroke="#EBA0AC" stroke-linecap="round" stroke-linejoin="round" stroke-width="16" width="56" x="100" y="100"/><rect fill="none" height="160" rx="8" stroke="#EBA0AC" stroke-linecap="round" stroke-linejoin="round" stroke-width="16" width="160" x="48" y="48"/><line fill="none" stroke="#EBA0AC" stroke-linecap="round" stroke-linejoin="round" stroke-width="16" x1="208" x2="232" y1="104" y2="104"/><line fill="none" stroke="#EBA0AC" stroke-linecap="round" stroke-linejoin="round" stroke-width="16" x1="208" x2="232" y1="152" y2="152"/><line fill="none" stroke="#EBA0AC" stroke-linecap="round" stroke-linejoin="round" stroke-width="16" x1="24" x2="48" y1="104" y2="104"/><line fill="none" stroke="#EBA0AC" stroke-linecap="round" stroke-linejoin="round" stroke-width="16" x1="24" x2="48" y1="152" y2="152"/><line fill="none" stroke="#EBA0AC" stroke-linecap="round" stroke-linejoin="round" stroke-width="16" x1="152" x2="152" y1="208" y2="232"/><line fill="none" stroke="#EBA0AC" stroke-linecap="round" stroke-linejoin="round" stroke-width="16" x1="104" x2="104" y1="208" y2="232"/><line fill="none" stroke="#EBA0AC" stroke-linecap="round" stroke-linejoin="round" stroke-width="16" x1="152" x2="152" y1="24" y2="48"/><line fill="none" stroke="#EBA0AC" stroke-linecap="round" stroke-linejoin="round" stroke-width="16" x1="104" x2="104" y1="24" y2="48"/></svg>