<svg width="66" height="42" viewBox="0 0 66 42" fill="none" xmlns="http://www.w3.org/2000/svg">
<path d="M56.45 41.8125H58.775V35.4531H64.5875C65.2292 35.4531 65.75 34.9363 65.75 34.2969V7.7031C65.75 7.0637 65.2292 6.5469 64.5875 6.5469H58.775V0.1875H56.45V6.5469H50.6375V0.1875H48.3125V6.5469H42.5V0.1875H40.175V6.5469H34.3625V0.1875H32.0375V6.5469H26.225V0.1875H23.9V6.5469H18.0875V0.1875H15.7625V6.5469H9.95V0.1875H7.625V6.5469H1.81249C1.17079 6.5469 0.649994 7.0637 0.649994 7.7031V34.2969C0.649994 34.9363 1.17079 35.4531 1.81249 35.4531H7.625V41.8125H9.95V35.4531H15.7625V41.8125H18.0875V35.4531H23.9V41.8125H26.225V35.4531H32.0375V41.8125H34.3625V35.4531H40.175V41.8125H42.5V35.4531H48.3125V41.8125H50.6375V35.4531H56.45V41.8125ZM2.97499 33.1406V8.8594H63.425V33.1406H2.97499Z" fill="#A6DA95"/>
<path d="M6.46249 14.0625V27.9375C6.46249 28.5769 6.98329 29.0938 7.62499 29.0938H21.575C22.2167 29.0938 22.7375 28.5769 22.7375 27.9375V14.0625C22.7375 13.4231 22.2167 12.9063 21.575 12.9063H7.62499C6.98329 12.9063 6.46249 13.4231 6.46249 14.0625ZM20.4125 15.2188V26.7813H8.78749V15.2188H20.4125Z" fill="#A6DA95"/>
<path d="M25.0625 14.0625V27.9375C25.0625 28.5769 25.5833 29.0938 26.225 29.0938H40.175C40.8167 29.0938 41.3375 28.5769 41.3375 27.9375V14.0625C41.3375 13.4231 40.8167 12.9063 40.175 12.9063H26.225C25.5833 12.9063 25.0625 13.4231 25.0625 14.0625ZM39.0125 15.2188V26.7813H27.3875V15.2188H39.0125Z" fill="#A6DA95"/>
<path d="M43.6625 14.0625V27.9375C43.6625 28.5769 44.1833 29.0937 44.825 29.0937H58.775C59.4167 29.0937 59.9375 28.5769 59.9375 27.9375V14.0625C59.9375 13.4231 59.4167 12.9063 58.775 12.9063H44.825C44.1833 12.9063 43.6625 13.4231 43.6625 14.0625ZM57.6125 15.2188V26.7812L45.9875 26.7813V15.2188H57.6125Z" fill="#A6DA95"/>
</svg>
