<svg width="310" height="292" viewBox="0 0 310 292" fill="none" xmlns="http://www.w3.org/2000/svg">
<path d="M156 118H100V174H156V118Z" stroke="#7DC4E4" stroke-width="16" stroke-linecap="round" stroke-linejoin="round"/>
<path d="M192 66H55.5789C51.3932 66 48 69.5817 48 74V218C48 222.418 51.3932 226 55.5789 226H175.5" stroke="#7DC4E4" stroke-width="16" stroke-linecap="round" stroke-linejoin="round"/>
<path d="M24 122H48" stroke="#7DC4E4" stroke-width="16" stroke-linecap="round" stroke-linejoin="round"/>
<path d="M24 170H48" stroke="#7DC4E4" stroke-width="16" stroke-linecap="round" stroke-linejoin="round"/>
<path d="M152 226V250" stroke="#7DC4E4" stroke-width="16" stroke-linecap="round" stroke-linejoin="round"/>
<path d="M104 226V250" stroke="#7DC4E4" stroke-width="16" stroke-linecap="round" stroke-linejoin="round"/>
<path d="M152 42V66" stroke="#7DC4E4" stroke-width="16" stroke-linecap="round" stroke-linejoin="round"/>
<path d="M104 42V66" stroke="#7DC4E4" stroke-width="16" stroke-linecap="round" stroke-linejoin="round"/>
<path d="M255.658 196.122V37.5303C255.658 19.5648 241.086 5 223.111 5C205.136 5 190.564 19.5648 190.564 37.5303V196.122C180.425 205.113 174 218.198 174 232.81C174 259.921 195.987 281.897 223.111 281.897C250.236 281.897 272.222 259.921 272.222 232.81C272.222 218.195 265.797 205.113 255.658 196.122ZM223.111 271.828C201.553 271.828 184.074 254.358 184.074 232.81C184.074 224.851 186.469 217.458 190.564 211.288C193.249 207.24 196.674 203.739 200.638 200.942V189.199V39.0079C200.638 25.8075 210.72 15.069 223.111 15.069C235.502 15.069 245.584 25.8075 245.584 39.0079V189.197V200.94C249.548 203.736 252.973 207.24 255.658 211.285C259.751 217.455 262.148 224.851 262.148 232.808C262.148 254.358 244.672 271.828 223.111 271.828Z" fill="#7DC4E4"/>
<path d="M235.704 205.866V145.966H210.519V205.866C199.737 210.08 194.148 220.541 194.148 232.81C194.148 248.797 207.116 261.759 223.111 261.759C239.106 261.759 252.074 248.797 252.074 232.81C252.074 220.541 246.485 210.08 235.704 205.866Z" fill="#7DC4E4"/>
</svg>
